<svg width="150" height="151" viewBox="0 0 150 151" fill="none" xmlns="http://www.w3.org/2000/svg">
<rect y="0.00448608" width="150" height="150" rx="75" fill="#7E99EC"/>
<path d="M49.5957 63.1656C49.5957 54.264 51.4713 51.0135 58.3986 50.2384C59.699 50.0634 61.1245 50.0133 62.775 50.0133H86.4577C88.0833 50.0133 89.5337 50.0634 90.8342 50.2384C97.7614 51.0135 99.637 54.264 99.637 63.1656V78.9684C99.637 87.87 97.7614 91.1205 90.8342 91.8957C89.5337 92.0707 88.1083 92.1208 86.4577 92.1208H62.775C61.1495 92.1208 59.699 92.0707 58.3986 91.8957C51.4713 91.1205 49.5957 87.87 49.5957 78.9684V72.7672" stroke="white" stroke-width="3" stroke-linecap="round" stroke-linejoin="round"/>
<path d="M78.5552 65.8162H87.7582" stroke="white" stroke-width="3" stroke-linecap="round" stroke-linejoin="round"/>
<path d="M61.4502 80.2936H61.5002H87.7838" stroke="white" stroke-width="3" stroke-linecap="round" stroke-linejoin="round"/>
<path d="M62.0996 100.022H87.1078" stroke="white" stroke-width="3" stroke-linecap="round" stroke-linejoin="round"/>
<path d="M62.5874 65.7658H62.6099" stroke="white" stroke-width="3" stroke-linecap="round" stroke-linejoin="round"/>
<path d="M70.8398 65.7658H70.8623" stroke="white" stroke-width="3" stroke-linecap="round" stroke-linejoin="round"/>
</svg>
